<svg xmlns="http://www.w3.org/2000/svg" version="1.1" xmlns:xlink="http://www.w3.org/1999/xlink" xmlns:svgjs="http://svgjs.dev/svgjs" width="2000" height="1500" viewBox="0 0 2000 1500"><rect width="2000" height="1500" fill="#ffffff"></rect><g transform="matrix(0.75,0,0,0.75,249.09132128684712,486.72769395499665)"><svg viewBox="0 0 396 139" data-background-color="#ffffff" preserveAspectRatio="xMidYMid meet" height="702" width="2000" xmlns="http://www.w3.org/2000/svg" xmlns:xlink="http://www.w3.org/1999/xlink"><g id="tight-bounds" transform="matrix(1,0,0,1,0.239891180272366,0.005888965347509156)"><svg viewBox="0 0 395.52 138.98822206930498" height="138.98822206930498" width="395.52"><g><svg viewBox="0 0 395.52 138.98822206930498" height="138.98822206930498" width="395.52"><g transform="matrix(1,0,0,1,0,92.133496772)"><svg viewBox="0 0 395.52 46.85472529730498" height="46.85472529730498" width="395.52"><g id="textblocktransform"><svg viewBox="0 0 395.52 46.85472529730498" height="46.85472529730498" width="395.52" id="textblock"><g><svg viewBox="0 0 395.52 46.85472529730498" height="46.85472529730498" width="395.52"><g transform="matrix(1,0,0,1,0,0)"><svg width="395.52" viewBox="-2.2154499999999975 -39.278349999999996 436.15621000000004 51.66859999999999" height="46.85472529730498" data-palette-color="#e2b8a5"><path d="M26.351-24.395v0c0.296 1.542 0.599 2.831 0.912 3.866 0.311 1.029 0.656 2.004 1.034 2.924 0.379 0.926 0.816 1.91 1.31 2.949 0.494 1.04 1.072 2.341 1.733 3.903v0c-0.242 0.689-0.423 1.545-0.543 2.569-0.12 1.016-0.202 2.072-0.245 3.165-0.043 1.094-0.039 2.162 0.011 3.204 0.052 1.048 0.127 1.963 0.226 2.743v0c0.078 0.615 0.176 1.211 0.296 1.787 0.126 0.575 0.302 1.114 0.527 1.617v0c-1.833 0.594-3.369 1.601-4.608 3.021-1.231 1.425-2.417 3.101-3.558 5.026v0c-2.769-0.806-5.91-1.226-9.422-1.26-3.512-0.034-7.229 0.197-11.151 0.693v0c0.333-0.237 0.74-0.658 1.221-1.263 0.488-0.606 0.946-1.289 1.374-2.048 0.434-0.767 0.788-1.554 1.063-2.362 0.274-0.807 0.371-1.535 0.288-2.183v0c-0.082-0.648-0.181-1.378-0.296-2.19-0.122-0.804-0.292-1.623-0.512-2.456-0.219-0.826-0.5-1.62-0.845-2.383-0.338-0.764-0.756-1.41-1.253-1.938v0c0.308-0.435 0.524-1.064 0.649-1.886 0.125-0.822 0.183-1.72 0.174-2.693-0.001-0.967-0.05-1.966-0.147-2.995-0.102-1.022-0.206-1.953-0.312-2.793v0c-0.131-1.038-0.323-1.921-0.577-2.649-0.26-0.727-0.631-1.378-1.113-1.956-0.484-0.584-1.112-1.14-1.884-1.667-0.779-0.527-1.752-1.126-2.918-1.798v0c2.295-0.29 4.357-0.56 6.187-0.812 1.83-0.245 3.519-0.492 5.067-0.741 1.555-0.243 3.003-0.507 4.345-0.79 1.348-0.285 2.689-0.629 4.022-1.032v0c1.083 0.488 2.443 0.958 4.079 1.41 1.636 0.452 3.258 0.791 4.866 1.018zM24.223 2.493v0c-0.089-0.708-0.163-1.659-0.219-2.855-0.05-1.196-0.063-2.414-0.038-3.654 0.025-1.24 0.092-2.407 0.202-3.503 0.103-1.102 0.27-1.929 0.503-2.482v0c-0.313-0.619-0.678-1.406-1.094-2.362-0.415-0.949-0.838-1.95-1.267-3.005-0.428-1.048-0.823-2.1-1.184-3.156-0.368-1.055-0.652-1.997-0.851-2.826v0c-0.523 0.066-1.178 0.172-1.966 0.319-0.788 0.147-1.638 0.334-2.549 0.564-0.904 0.235-1.808 0.5-2.712 0.796-0.903 0.296-1.726 0.621-2.467 0.977v0c0.118 1.463 0.28 3.146 0.487 5.049 0.207 1.902 0.445 3.922 0.714 6.058v0c0.262 2.077 0.577 4.251 0.945 6.523 0.374 2.271 0.811 4.611 1.31 7.021v0c0.337 0.058 0.781 0.116 1.332 0.175 0.552 0.065 1.128 0.123 1.726 0.175 0.599 0.059 1.19 0.108 1.773 0.149 0.583 0.041 1.087 0.068 1.512 0.081v0c0.362-0.805 0.894-1.564 1.597-2.278 0.696-0.713 1.445-1.301 2.246-1.766zM47.909-29.583v0c-0.633 0.526-1.142 1.199-1.528 2.019-0.386 0.814-0.67 1.68-0.851 2.599-0.18 0.925-0.28 1.875-0.299 2.85-0.027 0.969 0.008 1.894 0.104 2.775v0c0.068 0.616 0.167 1.269 0.297 1.96 0.123 0.691 0.281 1.398 0.475 2.12 0.193 0.717 0.417 1.413 0.673 2.089 0.256 0.683 0.546 1.301 0.869 1.856v0c-0.42 0.932-0.652 2.024-0.696 3.276-0.042 1.259 0.004 2.505 0.141 3.737v0c0.229 2.074 0.704 4.017 1.427 5.829 0.729 1.811 2.021 3.516 3.874 5.116v0c-1.781-0.032-3.332-0.015-4.653 0.05-1.327 0.066-2.525 0.158-3.591 0.276v0c-1.464 0.161-2.728 0.348-3.792 0.558-1.056 0.217-2.111 0.468-3.166 0.752v0c0.636-0.499 1.207-1.132 1.712-1.899 0.506-0.76 0.925-1.584 1.256-2.473 0.331-0.895 0.563-1.826 0.699-2.793 0.141-0.968 0.162-1.906 0.062-2.814v0c-0.183-1.657-0.556-3.252-1.121-4.786-0.557-1.528-1.318-2.766-2.281-3.712v0c0.722-1.79 1.151-3.4 1.289-4.83 0.145-1.424 0.135-2.885-0.031-4.384v0c-0.1-0.908-0.257-1.876-0.471-2.905v0c-1.323-0.377-2.274-1.101-2.855-2.171-0.574-1.07-1.003-2.281-1.286-3.631v0c1.106 0.173 2.126 0.275 3.062 0.307 0.942 0.024 1.833-0.011 2.675-0.104v0c1.498-0.165 2.869-0.407 4.115-0.725 1.246-0.318 2.543-0.632 3.891-0.942zM94.66 5.136l-0.037 0.143c-1.911-0.484-3.804-1.026-5.679-1.626-1.875-0.601-3.739-1.343-5.593-2.227v0c-0.387 0.463-0.729 0.856-1.028 1.178-0.299 0.321-0.618 0.605-0.958 0.849-0.339 0.245-0.705 0.459-1.097 0.641-0.392 0.183-0.857 0.365-1.396 0.548v0c0.29-0.421 0.473-0.916 0.548-1.485 0.083-0.563 0.098-1.137 0.046-1.721v0c-0.085-0.943-0.291-1.851-0.617-2.726-0.327-0.874-0.614-1.611-0.862-2.212v0l-1.51-3.598c-0.831 1.32-1.641 2.769-2.429 4.345-0.794 1.584-1.472 3.091-2.032 4.521v0c-0.622-0.734-1.462-1.776-2.521-3.126-1.058-1.344-2.23-2.794-3.516-4.352v0l-0.547 2.61c-0.141 0.669-0.238 1.333-0.292 1.994-0.054 0.661-0.05 1.333 0.011 2.017v0c0.091 1.009 0.31 1.99 0.657 2.943 0.347 0.953 0.851 1.824 1.511 2.615v0c-0.671-0.167-1.236-0.347-1.695-0.54-0.459-0.186-0.887-0.409-1.286-0.667-0.405-0.258-0.809-0.543-1.211-0.855-0.402-0.305-0.87-0.665-1.403-1.078v0c-1.25 1.425-2.515 2.466-3.794 3.124-1.286 0.658-2.758 1.079-4.415 1.261v0c0.609-0.155 1.223-0.612 1.844-1.371 0.621-0.759 1.206-1.729 1.756-2.909 0.549-1.187 1.058-2.522 1.527-4.004 0.475-1.489 0.869-3.05 1.183-4.685v0l1.061-5.608c-1.244-1.099-2.572-2.02-3.984-2.763-1.412-0.743-2.656-1.066-3.733-0.969v0c-0.06 0.005-0.139 0.013-0.239 0.022-0.1 0.009-0.294 0.043-0.583 0.102v0l-0.062-0.134c1.336-0.843 2.605-1.319 3.807-1.428v0c0.817-0.074 1.66 0.004 2.531 0.233 0.871 0.236 1.889 0.613 3.054 1.131v0l1.825-9.272c0.11-0.565 0.178-1.064 0.206-1.494 0.029-0.424 0.031-0.766 0.008-1.025v0c-0.062-0.684-0.312-1.157-0.75-1.419-0.431-0.256-1.168-0.336-2.211-0.242v0c-0.651 0.059-1.343 0.171-2.078 0.338-0.741 0.167-1.624 0.394-2.65 0.681v0c0.173-0.31 0.613-0.695 1.322-1.154 0.715-0.459 1.584-0.913 2.608-1.359 1.03-0.454 2.141-0.859 3.335-1.215 1.2-0.356 2.37-0.585 3.512-0.688v0c0.843-0.076 1.666-0.05 2.467 0.078 0.794 0.122 1.409 0.408 1.845 0.858v0c0.582-0.079 1.209-0.216 1.88-0.41 0.672-0.194 1.309-0.409 1.91-0.645 0.601-0.235 1.14-0.461 1.616-0.677 0.469-0.223 0.781-0.392 0.938-0.507v0c-0.399 0.692-0.665 1.496-0.796 2.412-0.132 0.909-0.151 1.885-0.058 2.926v0c0.12 1.335 0.392 2.712 0.815 4.134 0.429 1.421 0.902 2.73 1.419 3.928 0.517 1.205 1.044 2.225 1.581 3.061 0.531 0.836 0.967 1.338 1.311 1.508v0c0.173 1.919 0.692 3.92 1.556 6.005 0.858 2.091 1.903 4.065 3.134 5.922 1.238 1.856 2.584 3.495 4.038 4.917 1.461 1.428 2.861 2.476 4.2 3.146zM71.244-6.237v0c0.483-0.8 1.038-1.66 1.664-2.58 0.619-0.926 1.183-1.84 1.691-2.743v0l-4.855-11.862-2.719 12.937c0.712 0.625 1.439 1.333 2.179 2.123 0.747 0.783 1.426 1.491 2.04 2.125zM111.152-1.43l-0.838-0.094-10.333-15.61 0.504 7.483c0.136 2.022 0.317 3.714 0.543 5.075 0.218 1.355 0.508 2.528 0.869 3.519 0.361 0.991 0.797 1.854 1.307 2.588 0.511 0.741 1.119 1.478 1.823 2.213v0c-0.731-0.144-1.373-0.298-1.926-0.462-0.552-0.157-1.089-0.348-1.612-0.573-0.523-0.225-1.067-0.516-1.632-0.872-0.559-0.357-1.217-0.803-1.975-1.34v0c-0.406 0.809-0.856 1.568-1.35 2.276-0.494 0.701-1.087 1.373-1.779 2.014-0.692 0.635-1.494 1.227-2.405 1.776-0.911 0.556-1.989 1.073-3.233 1.551v0c0.914-1.017 1.753-2.146 2.517-3.387 0.764-1.248 1.42-2.571 1.968-3.971 0.548-1.393 0.959-2.821 1.234-4.283 0.276-1.455 0.365-2.918 0.266-4.388v0c-0.092-1.37-0.351-2.679-0.776-3.927-0.432-1.247-1.076-2.43-1.933-3.548v0c1.39-3.174 2.003-5.965 1.841-8.373v0c-0.139-2.055-0.792-3.872-1.961-5.45-1.175-1.571-2.788-2.993-4.838-4.264v0c0.32-0.115 0.692-0.187 1.118-0.216v0c0.652-0.044 1.382-0.02 2.19 0.073 0.808 0.093 1.7 0.186 2.675 0.281 0.969 0.102 2.031 0.187 3.184 0.256 1.147 0.07 2.406 0.058 3.776-0.034v0c0.326-0.022 0.645-0.043 0.958-0.065 0.306-0.021 0.621-0.059 0.945-0.113v0c-0.277 0.246-0.527 0.557-0.749 0.932-0.215 0.375-0.408 0.783-0.579 1.222-0.165 0.432-0.288 0.881-0.371 1.348-0.089 0.467-0.12 0.893-0.094 1.279v0l10.869 16.115 7.001-17.019c-0.47-1.118-0.983-2.048-1.542-2.793-0.558-0.751-1.266-1.441-2.124-2.072v0c0.231 0.051 0.442 0.07 0.636 0.058 0.2-0.013 0.412-0.028 0.638-0.043v0c1.111-0.075 2.265-0.193 3.464-0.354 1.198-0.168 2.398-0.365 3.598-0.594 1.194-0.228 2.357-0.47 3.489-0.726 1.125-0.256 2.205-0.499 3.239-0.729v0c-0.932 0.751-1.673 1.546-2.225 2.385-0.545 0.839-0.944 1.707-1.197 2.606-0.253 0.906-0.404 1.841-0.452 2.807-0.048 0.972-0.038 1.964 0.03 2.975v0c0.083 1.237 0.383 2.51 0.899 3.818 0.516 1.308 1.232 2.717 2.149 4.225v0c-0.515 1.084-0.956 2.423-1.323 4.018-0.367 1.595-0.498 3.174-0.392 4.737v0c0.114 1.696 0.52 3.259 1.218 4.689 0.704 1.423 1.652 2.454 2.845 3.095v0c-0.661 0.405-1.318 0.867-1.972 1.386-0.653 0.518-1.254 1.067-1.803 1.645-0.556 0.579-1.041 1.159-1.456 1.742-0.422 0.583-0.729 1.128-0.922 1.636v0c-0.199-0.481-0.522-1-0.967-1.559-0.445-0.558-0.979-1.093-1.602-1.606-0.63-0.519-1.3-0.991-2.01-1.418-0.717-0.426-1.427-0.746-2.129-0.959v0c0.488-0.494 0.863-1.124 1.125-1.89 0.255-0.772 0.425-1.619 0.511-2.54 0.084-0.928 0.118-1.912 0.101-2.953-0.024-1.047-0.071-2.093-0.141-3.138v0l-0.623-9.239zM144.371-6.062v0c0.601 0.3 1.153 0.57 1.657 0.808 0.498 0.245 1.005 0.463 1.52 0.653 0.515 0.184 1.07 0.346 1.663 0.487 0.593 0.134 1.269 0.251 2.028 0.351v0c1.342-0.747 2.414-1.245 3.217-1.494 0.81-0.249 1.341-0.46 1.594-0.631v0c-0.073-3.167-0.164-6.489-0.271-9.967-0.101-3.479-0.22-6.787-0.359-9.924v0c-0.036-0.813-0.072-1.618-0.107-2.418-0.035-0.799-0.103-1.574-0.203-2.323v0c-0.601-0.3-1.153-0.57-1.657-0.808-0.498-0.238-1.004-0.453-1.52-0.643-0.516-0.191-1.063-0.353-1.643-0.488-0.58-0.141-1.249-0.262-2.008-0.362v0c-1.335 0.746-2.413 1.271-3.234 1.575-0.821 0.297-1.358 0.531-1.61 0.702v0c0.003 0.821 0.013 1.811 0.031 2.971 0.018 1.16 0.047 2.41 0.086 3.75 0.046 1.333 0.101 2.735 0.166 4.207 0.065 1.465 0.128 2.901 0.19 4.306v0c0.065 1.472 0.142 3.053 0.23 4.744 0.095 1.697 0.172 3.199 0.23 4.504zM135.02-17.86v0c0.406-0.472 0.764-1.068 1.072-1.789 0.309-0.714 0.578-1.494 0.808-2.338 0.223-0.844 0.387-1.725 0.493-2.644 0.106-0.919 0.14-1.821 0.101-2.708v0c-0.066-1.499-0.359-2.907-0.878-4.225-0.512-1.319-1.305-2.265-2.378-2.838v0c1.009-0.111 2.106-0.29 3.29-0.536 1.183-0.253 2.371-0.552 3.564-0.898 1.193-0.346 2.337-0.714 3.434-1.103 1.09-0.395 2.053-0.808 2.888-1.239v0c1.08 0.119 2.37 0.332 3.872 0.64 1.502 0.314 2.998 0.631 4.487 0.953 1.483 0.328 2.844 0.628 4.084 0.9 1.24 0.272 2.137 0.413 2.691 0.421v0c-0.42 0.773-0.704 1.726-0.855 2.861-0.143 1.134-0.188 2.304-0.135 3.509v0c0.081 1.832 0.388 3.643 0.921 5.435 0.54 1.791 1.258 3.238 2.154 4.339v0c-0.768 1.048-1.376 2.457-1.825 4.225-0.442 1.768-0.622 3.584-0.539 5.449v0c0.066 1.499 0.358 2.89 0.875 4.175 0.511 1.285 1.303 2.231 2.378 2.838v0c-1.009 0.111-2.123 0.291-3.34 0.538-1.21 0.254-2.421 0.554-3.634 0.902-1.213 0.347-2.381 0.716-3.504 1.106-1.13 0.397-2.093 0.81-2.888 1.238v0c-1.085-0.085-2.371-0.275-3.859-0.57-1.481-0.295-2.956-0.607-4.426-0.935-1.469-0.329-2.814-0.636-4.034-0.922-1.227-0.286-2.102-0.451-2.625-0.495v0c0.434-0.446 0.72-1.153 0.857-2.12 0.137-0.974 0.178-2.08 0.124-3.319v0c-0.051-1.146-0.177-2.341-0.379-3.586-0.202-1.252-0.45-2.402-0.743-3.451-0.287-1.055-0.609-1.932-0.968-2.63-0.358-0.705-0.719-1.099-1.083-1.183zM191.684-9.679l1 1.456c-0.213-3.231-0.38-6.332-0.502-9.304-0.122-2.972-0.223-5.601-0.302-7.887-0.086-2.286-0.145-4.115-0.178-5.488-0.04-1.373-0.059-2.073-0.06-2.099v0c-0.188-1.991-1.234-3.349-3.139-4.076v0c0.327 0.029 0.644 0.041 0.951 0.037 0.313-0.004 0.633-0.009 0.96-0.014v0c1.467-0.021 2.812-0.113 4.036-0.277 1.224-0.164 2.342-0.337 3.353-0.518 1.004-0.174 1.922-0.341 2.754-0.499 0.831-0.159 1.607-0.243 2.326-0.253v0c0.393-0.006 0.771 0.036 1.132 0.123v0c-1.94 1.434-3.428 2.982-4.464 4.644-1.043 1.668-1.55 3.532-1.521 5.593v0c0.034 2.413 0.877 5.145 2.527 8.194v0c-0.726 1.904-1.311 3.952-1.753 6.146-0.442 2.2-0.648 4.393-0.616 6.579v0c0.013 0.947 0.069 2.033 0.166 3.258 0.097 1.225 0.268 2.423 0.511 3.594v0c1.001 1.033 1.89 1.837 2.665 2.412 0.775 0.576 1.474 1.006 2.099 1.29 0.624 0.284 1.207 0.473 1.748 0.565 0.541 0.092 1.073 0.168 1.593 0.228v0l-1.316-3.222c1.115 0.604 2.234 1.178 3.355 1.723 1.121 0.537 2.271 1.011 3.451 1.421 1.179 0.403 2.417 0.719 3.713 0.947 1.29 0.228 2.672 0.332 4.145 0.311v0c0.98-0.014 1.999-0.062 3.059-0.144 1.059-0.082 2.177-0.211 3.354-0.387v0c-2.857 1.181-5.548 2.042-8.074 2.585-2.526 0.543-4.915 0.83-7.168 0.862v0c-2.873 0.041-5.532-0.328-7.977-1.107-2.445-0.785-4.714-1.856-6.806-3.213-2.1-1.357-4.019-2.93-5.758-4.719-1.739-1.789-3.333-3.68-4.781-5.672-1.448-1.986-2.754-4.001-3.916-6.045-1.156-2.037-2.187-3.983-3.094-5.837v0l0.071 5c0.029 2.026 0.12 3.725 0.273 5.096 0.146 1.365 0.373 2.552 0.681 3.561 0.314 1.009 0.704 1.894 1.168 2.654 0.471 0.767 1.039 1.535 1.703 2.306v0c-0.723-0.183-1.355-0.371-1.899-0.563-0.543-0.186-1.069-0.405-1.579-0.658-0.51-0.253-1.038-0.572-1.584-0.958-0.539-0.386-1.172-0.867-1.901-1.443v0c-0.858 1.579-2.015 2.952-3.471 4.12-1.45 1.161-3.413 2.169-5.888 3.024v0c0.966-0.967 1.868-2.05 2.704-3.249 0.83-1.205 1.551-2.492 2.165-3.861 0.621-1.362 1.107-2.766 1.461-4.211 0.36-1.439 0.529-2.894 0.507-4.368v0c-0.02-1.373-0.212-2.694-0.576-3.962-0.358-1.268-0.939-2.484-1.742-3.645v0c1.556-3.096 2.317-5.85 2.283-8.264v0c-0.029-2.06-0.586-3.909-1.669-5.547-1.083-1.631-2.615-3.136-4.595-4.515v0c0.325-0.098 0.701-0.15 1.128-0.156v0c0.653-0.009 1.394 0.053 2.223 0.189 0.835 0.135 1.754 0.275 2.756 0.42 0.996 0.153 2.074 0.294 3.236 0.424 1.162 0.13 2.413 0.186 3.753 0.167v0c0.327-0.005 0.647-0.009 0.96-0.014 0.307-0.004 0.623-0.026 0.949-0.063v0c-1.75 0.712-2.746 1.936-2.988 3.673v0c0.614 1.458 1.352 3.144 2.212 5.059 0.861 1.915 1.819 3.928 2.876 6.04 1.057 2.105 2.207 4.236 3.452 6.391 1.237 2.156 2.523 4.205 3.858 6.146zM233.846-35.747v0c0.1 1.567 0.24 2.883 0.42 3.95 0.18 1.06 0.4 2.07 0.659 3.03 0.26 0.967 0.57 1.997 0.93 3.09 0.36 1.093 0.77 2.457 1.229 4.091v0c-0.327 0.653-0.614 1.48-0.861 2.479-0.247 0.993-0.46 2.03-0.64 3.11-0.18 1.08-0.31 2.14-0.391 3.18-0.08 1.047-0.12 1.963-0.12 2.75v0c0 0.62 0.023 1.223 0.07 1.81 0.053 0.587 0.16 1.143 0.319 1.67v0c-1.893 0.36-3.544 1.166-4.95 2.42-1.4 1.26-2.787 2.773-4.161 4.539v0c-2.646-1.147-5.71-1.958-9.189-2.432-3.48-0.474-7.197-0.711-11.15-0.712v0c0.36-0.193 0.817-0.56 1.37-1.099 0.56-0.54 1.1-1.16 1.62-1.86 0.527-0.707 0.977-1.443 1.351-2.21 0.373-0.767 0.56-1.477 0.56-2.13v0c0-0.653-0.006-1.39-0.02-2.21-0.02-0.813-0.086-1.647-0.199-2.5-0.113-0.847-0.293-1.67-0.54-2.47-0.24-0.8-0.573-1.493-1-2.08v0c0.36-0.393 0.653-0.99 0.881-1.79 0.227-0.8 0.397-1.683 0.51-2.65 0.12-0.96 0.197-1.957 0.231-2.99 0.027-1.027 0.04-1.963 0.04-2.81v0c0-1.047-0.08-1.947-0.239-2.7-0.167-0.753-0.453-1.447-0.86-2.08-0.407-0.64-0.96-1.27-1.66-1.89-0.707-0.62-1.596-1.337-2.669-2.151v0c2.313 0 4.393-0.009 6.24-0.029 1.847-0.013 3.553-0.046 5.12-0.099 1.573-0.046 3.043-0.126 4.41-0.239 1.373-0.113 2.747-0.286 4.12-0.519v0c1.013 0.62 2.303 1.257 3.869 1.91 1.567 0.654 3.133 1.194 4.7 1.621zM228.362-9.338v0c0-0.713 0.047-1.667 0.14-2.86 0.1-1.193 0.24-2.403 0.421-3.63 0.18-1.227 0.394-2.377 0.64-3.45 0.24-1.08 0.51-1.88 0.811-2.4v0c-0.233-0.653-0.496-1.48-0.79-2.48-0.293-0.993-0.586-2.04-0.879-3.14-0.293-1.093-0.553-2.187-0.78-3.28-0.233-1.093-0.396-2.063-0.489-2.91v0c-0.527 0-1.19 0.023-1.99 0.07-0.8 0.047-1.667 0.126-2.6 0.239-0.927 0.12-1.857 0.27-2.79 0.45-0.933 0.18-1.79 0.4-2.57 0.659v0c-0.067 1.467-0.117 3.157-0.151 5.07-0.034 1.913-0.051 3.947-0.051 6.1v0c0 2.093 0.039 4.29 0.119 6.59 0.086 2.3 0.226 4.677 0.419 7.13v0c0.327 0.1 0.76 0.213 1.299 0.341 0.54 0.133 1.103 0.264 1.69 0.39 0.587 0.133 1.167 0.257 1.74 0.37 0.573 0.113 1.07 0.204 1.49 0.27v0c0.46-0.753 1.084-1.44 1.871-2.059 0.78-0.62 1.597-1.11 2.45-1.47zM252.029-1.877l-0.046-0.151c0.501-0.28 0.949-0.825 1.344-1.636 0.401-0.803 0.752-1.724 1.053-2.763 0.307-1.039 0.543-2.12 0.706-3.242 0.156-1.123 0.247-2.158 0.272-3.104v0c0.039-1.466-0.078-2.873-0.349-4.221-0.278-1.348-0.684-2.372-1.22-3.073v0c0.534-0.513 0.985-1.194 1.355-2.045 0.363-0.857 0.654-1.783 0.873-2.778 0.226-0.988 0.386-2.004 0.481-3.048 0.088-1.045 0.143-2.024 0.167-2.937v0c0.02-0.753 0.024-1.407 0.012-1.96-0.019-0.554-0.041-0.978-0.067-1.273v0c-0.746-0.286-1.508-0.847-2.286-1.68-0.778-0.841-1.351-1.74-1.72-2.697v0c2.086 0.288 4.065 0.497 5.936 0.627 1.877 0.13 3.649 0.216 5.315 0.26v0c3.559 0.094 6.437 0.056 8.636-0.112 2.192-0.176 3.925-0.247 5.197-0.213v0c0.26 0.007 0.49 0.023 0.689 0.048 0.193 0.018 0.369 0.046 0.528 0.084v0c-0.203 0.355-0.423 1.003-0.661 1.943-0.238 0.941-0.469 1.972-0.692 3.093-0.223 1.128-0.422 2.22-0.597 3.275-0.181 1.056-0.309 1.843-0.382 2.361v0l-0.354 0.141c-1.122-0.683-1.926-1.438-2.411-2.265-0.485-0.833-0.842-1.823-1.072-2.969v0c-0.45-0.372-1.017-0.617-1.701-0.735-0.684-0.118-1.546-0.191-2.585-0.218v0c-0.853-0.022-1.67-0.027-2.451-0.015-0.787 0.013-1.411 0.013-1.871 0.001v0c-0.293 1.266-0.528 2.814-0.702 4.643-0.181 1.823-0.333 3.763-0.454 5.82v0c0.458 0.079 0.924 0.131 1.397 0.157 0.473 0.026 0.839 0.042 1.099 0.049v0c0.686 0.018 1.37-0.231 2.05-0.746 0.687-0.522 1.352-1.201 1.994-2.039v0c0.15 0.397 0.301 0.852 0.455 1.363 0.147 0.511 0.32 1.022 0.519 1.534 0.2 0.512 0.424 1.002 0.672 1.468 0.255 0.46 0.556 0.808 0.903 1.045v0c-0.301 0.292-0.594 0.661-0.88 1.107-0.292 0.452-0.568 0.935-0.828 1.448-0.254 0.52-0.494 1.037-0.721 1.552-0.227 0.514-0.429 0.982-0.608 1.404v0c-0.184-0.365-0.4-0.764-0.648-1.197-0.249-0.427-0.518-0.824-0.809-1.192-0.284-0.368-0.592-0.679-0.926-0.935-0.34-0.256-0.703-0.389-1.09-0.398v0c-0.293-0.008-0.72-0.002-1.28 0.016-0.554 0.019-1.062 0.072-1.525 0.16v0l-0.023 0.879c-0.054 2.059-0.079 4.013-0.075 5.86-0.002 1.847 0.046 3.456 0.143 4.826v0l8.255 1.058c0.507-2.014 1.36-3.789 2.561-5.325 1.201-1.542 2.491-3.029 3.869-4.459v0l0.297 0.108c-0.12 0.744-0.206 1.485-0.258 2.224-0.053 0.732-0.088 1.442-0.106 2.128v0c-0.045 1.699-0.002 3.234 0.128 4.605 0.124 1.377 0.29 2.412 0.499 3.104v0c-0.555 0.052-1.104 0.128-1.647 0.227-0.543 0.099-1.128 0.27-1.754 0.513-0.627 0.25-1.296 0.593-2.008 1.028-0.719 0.441-1.51 1.011-2.376 1.708v0c-2.724-0.892-5.417-1.577-8.078-2.054-2.668-0.477-5.082-0.744-7.242-0.801v0c-1.04-0.027-2.007 0.11-2.902 0.414zM293.906-33.053v0c-0.57 0.955-0.993 1.974-1.268 3.057-0.275 1.082-0.439 2.196-0.49 3.341v0c-0.042 0.946-0.021 1.894 0.062 2.846 0.091 0.952 0.228 1.905 0.413 2.861v0c0.796-0.191 1.631-0.351 2.504-0.478 0.866-0.121 1.834-0.208 2.904-0.261 1.063-0.046 2.265-0.072 3.607-0.078 1.342-0.007 2.876-0.005 4.605 0.006v0c-0.152 1.301-0.316 2.799-0.492 4.492-0.176 1.694-0.306 3.486-0.391 5.378v0c-0.08 1.792-0.088 3.596-0.022 5.415 0.065 1.818 0.274 3.569 0.625 5.253v0c-1.698-0.076-3.342 0.114-4.93 0.57-1.588 0.449-2.893 1.125-3.915 2.027v0c-0.667-0.45-1.424-0.918-2.27-1.403-0.846-0.478-1.864-0.924-3.053-1.338-1.189-0.414-2.587-0.793-4.193-1.139-1.599-0.352-3.492-0.627-5.679-0.825v0c0.792-0.845 1.429-1.738 1.912-2.677 0.483-0.946 0.748-1.958 0.797-3.038v0c0.016-0.36 0.015-0.703-0.004-1.031-0.012-0.328-0.06-0.673-0.144-1.037v0c0.453 0.02 1.08 0.239 1.883 0.654 0.796 0.409 1.737 0.932 2.822 1.568 1.086 0.643 2.304 1.378 3.655 2.206 1.351 0.828 2.825 1.668 4.422 2.521v0c0.329-0.799 0.615-1.888 0.857-3.265 0.242-1.384 0.396-2.808 0.462-4.274v0c0.057-1.272 0.03-2.451-0.082-3.537-0.118-1.086-0.347-1.864-0.686-2.333v0c-0.882 0.027-1.865 0.08-2.95 0.158-1.078 0.085-2.194 0.199-3.349 0.34-1.148 0.149-2.3 0.311-3.455 0.486-1.149 0.175-2.252 0.37-3.309 0.583v0c0.254-1.357 0.5-2.817 0.736-4.382 0.23-1.558 0.382-3.169 0.457-4.834v0c0.083-1.858-0.016-3.661-0.298-5.409-0.282-1.741-0.912-3.321-1.89-4.739v0c0.325 0.048 0.778 0.132 1.36 0.251 0.582 0.126 1.295 0.208 2.142 0.246v0c1.865 0.084 3.464-0.172 4.799-0.766 1.335-0.594 2.493-1.653 3.475-3.178v0c0.472 0.348 1.052 0.718 1.742 1.11 0.683 0.391 1.434 0.752 2.254 1.082 0.819 0.33 1.698 0.607 2.636 0.828 0.938 0.222 1.913 0.356 2.925 0.402v0c0.653 0.029 1.291 0.001 1.916-0.085 0.625-0.092 1.234-0.205 1.826-0.338v0c-0.73 1.702-1.674 3.115-2.832 4.237-1.165 1.129-2.417 1.663-3.756 1.604v0c-0.453-0.02-1.042-0.123-1.767-0.31-0.733-0.18-1.493-0.407-2.282-0.683-0.788-0.282-1.565-0.604-2.329-0.965-0.771-0.362-1.425-0.735-1.962-1.119zM344.234-33.61l0.087 0.206c-0.83 0.634-1.727 1.23-2.692 1.788-0.972 0.558-1.978 1.033-3.02 1.426-1.041 0.386-2.109 0.684-3.205 0.893-1.089 0.203-2.172 0.269-3.25 0.198v0c-0.359-0.024-0.702-0.046-1.028-0.067-0.326-0.021-0.651-0.056-0.975-0.104v0c-0.164 0.971-0.279 1.959-0.344 2.964v0c-0.181 2.774-0.347 5.563-0.497 8.365-0.15 2.81-0.329 5.794-0.536 8.954v0c-0.111 1.696 0.084 3.356 0.586 4.979 0.502 1.616 1.299 2.821 2.39 3.614v0c-1.413 0.562-2.606 1.179-3.579 1.85-0.98 0.677-1.873 1.675-2.681 2.991v0c-0.465-1.373-1.26-2.498-2.385-3.372-1.119-0.875-2.392-1.636-3.819-2.285v0c0.714-0.902 1.283-2.101 1.709-3.596 0.425-1.495 0.685-2.958 0.778-4.388v0c0.092-1.404 0.173-2.651 0.245-3.742 0.071-1.091 0.145-2.112 0.22-3.062 0.075-0.944 0.151-1.854 0.229-2.731 0.071-0.877 0.149-1.821 0.235-2.831 0.079-1.01 0.159-2.118 0.237-3.322 0.079-1.211 0.172-2.631 0.279-4.26v0c0.017-0.259 0.033-0.502 0.048-0.729 0.015-0.226-0.002-0.474-0.052-0.745v0c-2.123-0.526-4.143-1.059-6.058-1.599-1.909-0.532-3.662-0.851-5.259-0.955v0c-0.718-0.047-1.492-0.017-2.321 0.089v0l-0.031-0.143c1.791-0.411 3.272-0.952 4.446-1.623 1.173-0.678 2.366-1.502 3.579-2.472v0c1.664 0.603 3.079 1.09 4.243 1.461 1.172 0.371 2.268 0.669 3.289 0.896 1.014 0.233 2.018 0.406 3.013 0.518 0.988 0.118 2.117 0.219 3.387 0.302v0c-0.289-0.58-0.486-1.094-0.591-1.542-0.098-0.447-0.147-0.918-0.148-1.413v0c1.033 0.756 1.999 1.353 2.9 1.793 0.907 0.433 1.777 0.768 2.61 1.003 0.84 0.235 1.681 0.397 2.523 0.486 0.849 0.089 1.73 0.163 2.641 0.222v0c0.519 0.034 0.999 0.049 1.441 0.044 0.441-0.005 0.894-0.025 1.356-0.061zM377.356 7.905l-0.062 0.136c-1.798-0.809-3.567-1.673-5.309-2.591-1.742-0.918-3.448-1.974-5.119-3.167v0c-0.461 0.389-0.867 0.716-1.218 0.981-0.35 0.265-0.714 0.488-1.091 0.669-0.377 0.182-0.774 0.329-1.192 0.441-0.418 0.112-0.908 0.21-1.47 0.296v0c0.359-0.364 0.625-0.82 0.799-1.367 0.18-0.54 0.295-1.102 0.344-1.687v0c0.08-0.943 0.036-1.874-0.133-2.792-0.169-0.918-0.324-1.694-0.464-2.327v0l-0.859-3.807c-1.049 1.155-2.098 2.44-3.149 3.856-1.058 1.422-1.987 2.788-2.789 4.098v0c-0.484-0.831-1.13-2.003-1.938-3.518-0.808-1.507-1.709-3.14-2.703-4.897v0l-0.994 2.474c-0.255 0.634-0.466 1.272-0.635 1.913-0.168 0.641-0.282 1.304-0.34 1.989v0c-0.086 1.01-0.041 2.014 0.134 3.012 0.176 0.999 0.52 1.945 1.033 2.838v0c-0.632-0.281-1.157-0.557-1.576-0.827-0.419-0.263-0.802-0.557-1.149-0.881-0.354-0.325-0.702-0.675-1.044-1.052-0.343-0.37-0.741-0.806-1.194-1.307v0c-1.479 1.185-2.906 1.99-4.28 2.415-1.381 0.424-2.903 0.582-4.567 0.474v0c0.626-0.047 1.311-0.39 2.055-1.029 0.744-0.639 1.489-1.492 2.235-2.559 0.747-1.074 1.481-2.299 2.201-3.677 0.727-1.383 1.387-2.852 1.982-4.407v0l2.021-5.338c-1.033-1.299-2.181-2.438-3.443-3.415-1.261-0.977-2.43-1.512-3.506-1.603v0c-0.06-0.005-0.139-0.012-0.239-0.021-0.1-0.009-0.297-0.009-0.592 0v0l-0.038-0.144c1.463-0.598 2.795-0.845 3.997-0.743v0c0.817 0.07 1.634 0.293 2.452 0.671 0.817 0.384 1.754 0.932 2.811 1.645v0l3.411-8.812c0.206-0.538 0.361-1.016 0.464-1.436 0.102-0.413 0.164-0.749 0.186-1.008v0c0.058-0.684-0.106-1.193-0.492-1.527-0.38-0.327-1.092-0.535-2.135-0.624v0c-0.651-0.056-1.353-0.065-2.105-0.029-0.759 0.036-1.668 0.105-2.727 0.209v0c0.224-0.275 0.725-0.577 1.502-0.905 0.784-0.328 1.719-0.623 2.805-0.885 1.093-0.268 2.258-0.473 3.495-0.615 1.243-0.142 2.436-0.164 3.579-0.066v0c0.844 0.072 1.649 0.241 2.415 0.507 0.761 0.259 1.316 0.648 1.667 1.166v0c0.587 0.023 1.228-0.002 1.924-0.077 0.696-0.074 1.36-0.175 1.993-0.302 0.633-0.127 1.203-0.255 1.709-0.386 0.5-0.138 0.838-0.25 1.012-0.335v0c-0.514 0.612-0.915 1.357-1.205 2.235-0.288 0.872-0.477 1.829-0.566 2.873v0c-0.114 1.335-0.086 2.739 0.083 4.212 0.175 1.474 0.413 2.845 0.712 4.115 0.299 1.277 0.641 2.373 1.025 3.289 0.377 0.915 0.72 1.487 1.028 1.714v0c-0.164 1.92-0.002 3.981 0.486 6.184 0.481 2.209 1.166 4.335 2.055 6.377 0.896 2.044 1.936 3.892 3.12 5.546 1.19 1.66 2.386 2.937 3.588 3.828zM356.278-7.371v0c0.615-0.704 1.312-1.454 2.089-2.251 0.771-0.804 1.485-1.606 2.142-2.407v0l-2.715-12.526-4.931 12.266c0.593 0.74 1.185 1.563 1.777 2.47 0.599 0.901 1.145 1.717 1.638 2.448zM406.283-27.773l0.079 0.209c-0.853 0.602-1.772 1.164-2.758 1.686-0.992 0.521-2.016 0.958-3.071 1.311-1.055 0.347-2.133 0.604-3.236 0.772-1.096 0.162-2.181 0.187-3.255 0.075v0c-0.358-0.037-0.7-0.072-1.025-0.106-0.325-0.034-0.648-0.08-0.97-0.14v0c-0.2 0.965-0.352 1.947-0.456 2.949v0c-0.286 2.765-0.556 5.546-0.812 8.34-0.256 2.802-0.547 5.778-0.872 8.928v0c-0.175 1.691-0.042 3.357 0.398 4.998 0.441 1.634 1.192 2.868 2.252 3.701v0c-1.433 0.509-2.648 1.08-3.646 1.714-1.004 0.64-1.935 1.603-2.791 2.888v0c-0.413-1.39-1.165-2.543-2.257-3.46-1.085-0.916-2.328-1.725-3.73-2.426v0c0.747-0.875 1.361-2.051 1.843-3.53 0.481-1.478 0.795-2.93 0.942-4.356v0c0.145-1.399 0.273-2.643 0.386-3.73 0.112-1.088 0.224-2.105 0.335-3.052 0.111-0.94 0.221-1.847 0.332-2.72 0.104-0.874 0.218-1.814 0.341-2.82 0.117-1.007 0.238-2.11 0.363-3.31 0.125-1.207 0.271-2.623 0.438-4.247v0c0.027-0.259 0.052-0.501 0.076-0.727 0.023-0.225 0.015-0.474-0.024-0.746v0c-2.102-0.606-4.1-1.215-5.994-1.826-1.888-0.604-3.628-0.988-5.219-1.152v0c-0.716-0.074-1.49-0.074-2.323 0.001v0l-0.025-0.143c1.805-0.343 3.306-0.828 4.503-1.455 1.198-0.634 2.421-1.412 3.67-2.335v0c1.64 0.665 3.036 1.205 4.186 1.618 1.157 0.414 2.241 0.754 3.252 1.02 1.004 0.271 2.001 0.482 2.991 0.631 0.983 0.155 2.107 0.298 3.374 0.429v0c-0.267-0.591-0.445-1.112-0.532-1.563-0.081-0.451-0.112-0.923-0.095-1.417v0c1.004 0.794 1.947 1.428 2.829 1.901 0.89 0.467 1.747 0.834 2.571 1.1 0.83 0.267 1.665 0.46 2.504 0.58 0.845 0.121 1.722 0.228 2.63 0.322v0c0.517 0.053 0.996 0.086 1.438 0.099 0.441 0.012 0.894 0.009 1.358-0.011zM403.814 8.25l-0.032-0.155c0.525-0.232 1.022-0.733 1.491-1.502 0.475-0.762 0.911-1.646 1.308-2.652 0.404-1.005 0.739-2.059 1.007-3.162 0.261-1.103 0.448-2.125 0.562-3.064v0c0.176-1.456 0.192-2.868 0.048-4.235-0.15-1.368-0.459-2.426-0.925-3.174v0c0.579-0.46 1.093-1.097 1.54-1.909 0.442-0.82 0.818-1.714 1.13-2.684 0.318-0.962 0.573-1.959 0.765-2.99 0.185-1.032 0.333-2.001 0.442-2.908v0c0.09-0.748 0.156-1.398 0.195-1.95 0.033-0.553 0.051-0.978 0.054-1.273v0c-0.716-0.355-1.422-0.984-2.119-1.888-0.696-0.91-1.182-1.859-1.459-2.846v0c2.05 0.483 4 0.877 5.851 1.181 1.857 0.305 3.613 0.558 5.267 0.758v0c3.534 0.427 6.404 0.66 8.608 0.698 2.199 0.031 3.93 0.123 5.195 0.275v0c0.258 0.031 0.485 0.069 0.681 0.113 0.19 0.036 0.363 0.081 0.518 0.133v0c-0.235 0.334-0.515 0.958-0.841 1.873-0.325 0.914-0.652 1.919-0.979 3.014-0.328 1.102-0.628 2.17-0.901 3.205-0.279 1.034-0.48 1.805-0.602 2.315v0l-0.366 0.106c-1.053-0.785-1.783-1.612-2.188-2.48-0.405-0.875-0.667-1.894-0.789-3.057v0c-0.413-0.413-0.955-0.71-1.624-0.891-0.67-0.182-1.521-0.335-2.554-0.46v0c-0.847-0.102-1.66-0.184-2.438-0.245-0.785-0.061-1.406-0.12-1.862-0.174v0c-0.411 1.233-0.789 2.752-1.136 4.556-0.352 1.797-0.684 3.715-0.997 5.752v0c0.449 0.121 0.907 0.217 1.375 0.287 0.468 0.07 0.832 0.121 1.09 0.152v0c0.682 0.082 1.385-0.101 2.111-0.55 0.733-0.455 1.459-1.069 2.177-1.842v0c0.112 0.41 0.22 0.876 0.324 1.399 0.098 0.522 0.223 1.048 0.374 1.576 0.151 0.529 0.328 1.037 0.531 1.525 0.21 0.482 0.477 0.857 0.801 1.124v0c-0.327 0.263-0.654 0.603-0.98 1.02-0.333 0.423-0.653 0.878-0.961 1.364-0.301 0.494-0.589 0.986-0.863 1.477-0.274 0.491-0.52 0.938-0.737 1.342v0c-0.149-0.381-0.327-0.798-0.533-1.254-0.208-0.448-0.439-0.869-0.693-1.262-0.248-0.393-0.526-0.732-0.834-1.017-0.315-0.286-0.664-0.453-1.048-0.5v0c-0.291-0.035-0.717-0.07-1.277-0.104-0.553-0.033-1.064-0.028-1.533 0.016v0l-0.105 0.874c-0.247 2.045-0.455 3.988-0.624 5.827-0.175 1.839-0.279 3.445-0.311 4.818v0l8.119 1.828c0.693-1.958 1.71-3.644 3.05-5.061 1.34-1.423 2.764-2.782 4.27-4.077v0l0.286 0.135c-0.189 0.729-0.344 1.459-0.466 2.19-0.121 0.724-0.223 1.427-0.306 2.109v0c-0.204 1.688-0.305 3.22-0.304 4.597-0.006 1.383 0.062 2.428 0.205 3.137v0c-0.557 0-1.111 0.024-1.66 0.071-0.55 0.048-1.148 0.163-1.795 0.347-0.648 0.19-1.346 0.468-2.095 0.835-0.757 0.372-1.599 0.864-2.526 1.477v0c-2.628-1.144-5.245-2.078-7.85-2.802-2.612-0.725-4.99-1.218-7.134-1.477v0c-1.032-0.125-2.008-0.078-2.928 0.139z" opacity="1" transform="matrix(1,0,0,1,0,0)" fill="#000000" class="wordmark-text-0" data-fill-palette-color="primary" id="text-0"></path></svg></g></svg></g></svg></g></svg></g><g transform="matrix(1,0,0,1,160.74966968933597,0)"><svg viewBox="0 0 74.02066062132803 75.81094553103945" height="75.81094553103945" width="74.02066062132803"><g><svg xmlns="http://www.w3.org/2000/svg" xmlns:xlink="http://www.w3.org/1999/xlink" version="1.1" x="0" y="0" viewBox="5.0000000000000036 3.911245823753828 90 92.1767657910851" enable-background="new 0 0 100 100" xml:space="preserve" height="75.81094553103945" width="74.02066062132803" class="icon-icon-0" data-fill-palette-color="accent" id="icon-0"><g fill="#e2b8a5" data-fill-palette-color="accent"><path d="M74.994 46.271c-9.329 2.5-29.523 11.155-21.35 34.525 2.244 6.42 5.096 14.234 22.504 15.292 0 0 18.469 0.099 18.852-17.983 0 0-0.771-14.809-16.062-13.561 0 0-6.925 0.577-6.539 9.233 0 0 1.057 6.829 6.924 6.059 0 0 8.072-1.01 3.271-7.695-0.195-0.271-1.348-1.154 0.959-0.913 2.309 0.241 7.793 5.34 5.389 13.225 0 0-1.84 7.261-9.738 8.577-0.18 0.029-0.365 0.056-0.555 0.078-8.367 1.058-15.963-6.827-14.329-12.117 0 0 0.868-2.693 3.271-2.693 0 0 3.091 0.964 2.02-1.923-0.693-1.873-2.695-5.482-7.406-2.982 0 0-6.732 3.465-2.309 11.35l0.289 0.865c0 0-0.482 1.344-1.154-0.194-0.672-1.537-6.867-8.743-2.691-18.177 0.848-1.911 3.654-5.959 5.674-6.153 0 0 2.092-0.818 4.949 0.994 0.082 0.052 0.162 0.106 0.244 0.16 2.982 2.02 7.215 0.095 7.887-1.348 0.672-1.443 2.648-5.284 5.576-5.002 0.881 0.086 0.746 0.307 2.598 2.405 0.586 0.665 2.596 1.733 2.693-2.307 0 0 0.703-2.659-1.539-4.426-0.465-0.366-1.73-1.056-2.115-1.056 0 0-1.254-0.386-0.193-1.059 0 0 8.752-5.29 0.77-15.677-1.434-1.865-6.516-4.061-9.234 1.827-0.504 1.091-0.813 3.21 2.888 3.847 0.663 0.113 1.632 0.674 1.538-2.212 0 0 0.094-1.539 1.73-1.058 0 0 3.723 2.024-0.383 7.02C78.562 44.234 76.014 45.999 74.994 46.271z" fill="#000000" data-fill-palette-color="accent"></path><path d="M49.666 49.229c-1.01-0.072-0.793-1.516-0.793-1.516 0.072-3.967-2.381-9.376-2.381-9.376-2.02-5.193-0.915-11.619 0.145-15.292 3.26-11.291 3.029-11.685 1.01-14.931-4.03-6.477-7.952-3.983-9.737-2.236-3.165 3.097-0.145 4.761-0.145 4.761 2.164 1.875 3.048 0.432 3.246-0.361 0.455-1.821 1.731-1.731 1.731-1.731 2.02 0 1.947 1.659 1.947 1.659 0.433 1.947-3.318 4.977-3.318 4.977-3.174 2.741-2.236 6.204-2.236 6.204 0.938 2.524-0.392 2.452-0.392 2.452-0.681-0.144-0.839-0.826-1.051-1.154C33.076 15.544 28.1 22.18 28.1 22.18c-1.371 2.885 1.821 2.377 2.74 2.525 3.796 0.608 2.813 6.563 2.813 6.563-0.865 9.089 2.164 11.613 8.583 15.652 6.42 4.039 6.023 12.478 6.023 12.478-0.322 3.534 1.406 3.174 1.406 3.174h0.589c0 0 1.728 0.36 1.405-3.174 0 0-0.396-8.439 6.023-12.478 6.42-4.039 9.449-6.563 8.584-15.652 0 0-0.983-5.955 2.812-6.563 0.92-0.148 4.111 0.36 2.74-2.525 0 0-4.977-6.636-9.593 0.505-0.212 0.328-0.37 1.01-1.05 1.154 0 0-1.33 0.072-0.393-2.452 0 0 0.938-3.462-2.236-6.204 0 0-3.75-3.029-3.318-4.977 0 0-0.071-1.659 1.948-1.659 0 0 1.276-0.09 1.731 1.731 0.198 0.792 1.082 2.236 3.246 0.361 0 0 3.02-1.664-0.145-4.761-1.785-1.747-5.707-4.241-9.738 2.236-2.019 3.246-2.249 3.64 1.01 14.931 1.061 3.673 2.164 10.099 0.145 15.292 0 0-2.452 5.409-2.38 9.376 0 0 0.217 1.443-0.793 1.516H49.666z" fill="#000000" data-fill-palette-color="accent"></path><path d="M54.041 87.047c1.691 4.992-0.087 9.041-3.969 9.041s-5.657-4.049-3.966-9.041c1.69-4.99 3.467-9.039 3.967-9.039S52.35 82.057 54.041 87.047z" fill="#000000" data-fill-palette-color="accent"></path><path d="M25.005 46.271c9.329 2.5 29.522 11.155 21.35 34.525-2.244 6.42-5.096 14.234-22.504 15.292 0 0-18.468 0.099-18.851-17.983 0 0 0.771-14.809 16.062-13.561 0 0 6.924 0.577 6.539 9.233 0 0-1.058 6.829-6.925 6.059 0 0-8.072-1.01-3.271-7.695 0.193-0.271 1.348-1.154-0.96-0.913-2.309 0.241-7.793 5.34-5.388 13.225 0 0 1.84 7.261 9.737 8.577 0.181 0.029 0.365 0.056 0.555 0.078 8.367 1.058 15.963-6.827 14.329-12.117 0 0-0.868-2.693-3.271-2.693 0 0-3.091 0.964-2.02-1.923 0.694-1.873 2.695-5.482 7.406-2.982 0 0 6.733 3.465 2.309 11.35l-0.288 0.865c0 0 0.481 1.344 1.153-0.194 0.672-1.537 6.868-8.743 2.691-18.177-0.848-1.911-3.653-5.959-5.673-6.153 0 0-2.092-0.818-4.95 0.994-0.081 0.052-0.162 0.106-0.243 0.16-2.982 2.02-7.216 0.095-7.888-1.348-0.671-1.443-2.648-5.284-5.576-5.002-0.881 0.086-0.746 0.307-2.597 2.405-0.586 0.665-2.597 1.733-2.693-2.307 0 0-0.703-2.659 1.539-4.426 0.465-0.366 1.729-1.056 2.114-1.056 0 0 1.254-0.386 0.194-1.059 0 0-8.753-5.29-0.771-15.677 1.434-1.865 6.517-4.061 9.235 1.827 0.505 1.091 0.813 3.21-2.888 3.847-0.662 0.113-1.632 0.674-1.537-2.212 0 0-0.095-1.539-1.731-1.058 0 0-3.724 2.024 0.384 7.02C21.437 44.234 23.985 45.999 25.005 46.271z" fill="#000000" data-fill-palette-color="accent"></path></g></svg></g></svg></g><g></g></svg></g><defs></defs></svg><rect width="395.52" height="138.98822206930498" fill="none" stroke="none" visibility="hidden"></rect></g></svg></g></svg>